<mxfile host="app.diagrams.net" modified="2023-09-15T11:27:01.890Z" agent="Mozilla/5.0 (X11; Linux x86_64) AppleWebKit/537.36 (KHTML, like Gecko) Chrome/102.0.0.0 Safari/537.36" version="21.3.5" etag="0lTX7mO3OLdzzEbRHT5O" type="github">
  <diagram name="Страница 1" id="pcsFHKwvy8lLnId00BTh">
    <mxGraphModel>
      <root>
        <mxCell id="0" />
        <mxCell id="1" parent="0" />
      </root>
    </mxGraphModel>
  </diagram>
</mxfile>
